<?xml version="1.0" standalone="no"?>
<!DOCTYPE svg PUBLIC "-//W3C//DTD SVG 20010904//EN"
 "http://www.w3.org/TR/2001/REC-SVG-20010904/DTD/svg10.dtd">
<svg version="1.0" xmlns="http://www.w3.org/2000/svg"
 width="392.000000pt" height="409.000000pt" viewBox="0 0 392.000000 409.000000"
 preserveAspectRatio="xMidYMid meet">

<g transform="translate(0.000000,409.000000) scale(0.100000,-0.100000)"
fill="#000000" stroke="none">
<path d="M100 4027 c-51 -40 -50 -25 -50 -563 l0 -501 88 19 c121 27 389 21
505 -11 161 -45 311 -118 437 -213 29 -22 54 -37 57 -34 10 10 -18 129 -48
206 -57 148 -111 211 -510 595 -200 193 -272 307 -295 468 l-6 47 -82 0 c-48
-1 -87 -6 -96 -13z"/>
<path d="M350 4017 c0 -45 32 -143 67 -207 57 -106 96 -148 395 -432 102 -98
207 -206 233 -240 90 -119 149 -270 162 -413 l6 -69 106 -118 c97 -109 106
-116 114 -95 13 33 1 304 -16 367 -61 220 -121 299 -504 658 -243 228 -312
336 -338 525 l-6 47 -110 0 c-107 0 -109 0 -109 -23z"/>
<path d="M640 4018 c0 -49 32 -154 66 -219 47 -89 134 -190 270 -313 163 -149
346 -335 382 -390 51 -76 90 -158 119 -253 25 -83 27 -100 27 -284 l0 -195 75
-28 c42 -15 83 -29 92 -32 22 -8 28 22 35 191 10 217 -23 367 -112 520 -40 68
-90 123 -324 355 -345 342 -390 407 -420 593 l-13 77 -98 0 c-96 0 -99 -1 -99
-22z"/>
<path d="M916 3983 c21 -177 105 -301 370 -548 164 -153 286 -279 333 -344 50
-69 108 -196 131 -286 28 -107 36 -297 18 -436 l-14 -107 94 -62 c51 -34 95
-60 97 -58 2 2 13 66 24 143 36 244 24 452 -34 605 -57 149 -117 220 -504 595
-67 66 -143 147 -168 180 -61 81 -111 188 -124 266 -20 122 -5 109 -125 109
l-105 0 7 -57z"/>
<path d="M1195 3993 c16 -121 57 -215 140 -323 23 -30 136 -145 250 -255 266
-255 324 -323 385 -450 56 -115 79 -202 87 -332 l6 -92 86 71 c47 39 133 102
190 140 94 62 108 76 143 136 207 354 457 606 743 750 184 91 382 142 563 142
l82 0 0 93 c0 94 -9 122 -50 154 -12 10 -310 12 -1323 13 l-1308 0 6 -47z"/>
<path d="M3660 3705 c-363 -52 -672 -236 -924 -550 -69 -86 -159 -213 -185
-263 l-12 -23 38 17 c107 47 258 94 299 94 9 0 60 42 114 93 151 146 288 243
443 317 128 61 226 89 345 97 l92 6 0 114 0 113 -62 -1 c-35 -1 -101 -7 -148
-14z"/>
<path d="M3698 3420 c-181 -31 -417 -160 -632 -347 l-79 -68 113 -12 c62 -6
122 -14 132 -17 12 -3 46 12 90 41 153 99 296 146 446 147 l102 0 0 133 0 133
-62 -1 c-35 -1 -84 -5 -110 -9z"/>
<path d="M3668 3100 c-27 -5 -76 -18 -110 -29 -73 -25 -221 -102 -220 -115 0
-5 29 -21 64 -36 35 -14 95 -47 134 -71 l69 -45 58 23 c32 13 91 28 132 34
l75 11 0 113 c0 108 -1 113 -22 119 -30 8 -121 6 -180 -4z"/>
<path d="M255 2944 c-16 -2 -69 -11 -117 -20 l-88 -16 0 -123 0 -122 53 14
c240 65 576 -23 896 -236 97 -64 105 -68 140 -60 20 5 83 9 140 10 l103 0 -18
22 c-246 291 -491 453 -776 512 -72 15 -278 27 -333 19z"/>
<path d="M2910 2930 c-225 -39 -437 -137 -658 -305 -53 -41 -118 -94 -144
-117 l-48 -43 -15 -127 c-8 -69 -15 -132 -15 -138 0 -7 34 20 75 58 242 226
509 368 756 402 317 44 636 -119 879 -448 51 -69 55 -72 84 -66 17 3 34 8 39
11 4 2 7 73 7 157 l0 152 -37 45 c-224 271 -481 415 -758 424 -60 2 -135 0
-165 -5z"/>
<path d="M3730 2794 c-30 -8 -58 -18 -62 -22 -4 -4 40 -55 98 -114 l104 -106
0 129 0 129 -42 -1 c-24 0 -68 -7 -98 -15z"/>
<path d="M120 2622 l-65 -17 -3 -147 -3 -146 69 28 c177 75 381 60 612 -43
l95 -42 103 51 104 52 -84 52 c-305 189 -612 268 -828 212z"/>
<path d="M2808 2594 c-225 -40 -484 -192 -718 -422 l-85 -83 70 -64 c39 -36
77 -65 85 -65 8 0 29 19 45 41 17 22 73 82 125 132 398 385 813 380 1182 -12
l75 -80 77 40 c42 22 76 43 76 47 0 15 -139 179 -195 230 -232 212 -462 286
-737 236z"/>
<path d="M2785 2346 c-154 -39 -302 -133 -463 -294 -62 -62 -112 -118 -110
-124 3 -7 50 -36 107 -66 l102 -54 50 55 c109 122 258 209 394 229 157 23 285
-27 482 -188 l31 -25 73 60 c40 34 76 61 81 61 19 0 5 23 -53 84 -118 126
-275 227 -405 260 -73 19 -218 20 -289 2z"/>
<path d="M1155 2326 c-100 -20 -159 -42 -250 -93 -200 -114 -364 -291 -541
-585 -70 -116 -194 -366 -242 -488 l-30 -75 106 -3 c59 -1 108 1 110 6 2 6 35
65 73 132 189 328 407 559 631 670 120 58 220 82 353 83 230 1 408 -71 675
-272 186 -141 280 -195 410 -235 164 -49 339 -67 487 -50 l53 7 71 96 c40 53
83 108 97 124 30 32 32 32 -55 11 -91 -22 -272 -22 -383 1 -248 51 -509 182
-715 359 -169 146 -362 255 -520 296 -103 26 -242 33 -330 16z"/>
<path d="M222 2315 c-35 -7 -87 -25 -117 -39 l-55 -25 0 -172 0 -171 39 35
c110 100 282 149 440 127 l72 -10 85 77 84 78 -71 33 c-148 69 -346 97 -477
67z"/>
<path d="M3788 2076 c-232 -82 -440 -263 -715 -621 -39 -51 -181 -265 -217
-327 l-28 -48 181 0 180 0 32 48 c199 292 420 517 597 606 l52 26 0 170 c0 94
-3 170 -7 170 -5 0 -38 -11 -75 -24z"/>
<path d="M2789 2017 c-36 -12 -90 -37 -120 -55 -59 -36 -189 -152 -189 -169 0
-12 152 -64 245 -84 77 -17 316 -17 375 0 101 28 162 57 198 94 l37 39 -54 49
c-65 58 -186 123 -259 138 -81 17 -160 13 -233 -12z"/>
<path d="M317 2005 c-79 -22 -155 -64 -213 -119 l-55 -51 3 -360 3 -360 19 50
c100 262 291 607 431 780 25 31 43 60 40 65 -9 14 -172 11 -228 -5z"/>
<path d="M1242 1910 c-303 -55 -580 -297 -826 -723 -31 -54 -56 -100 -56 -102
0 -3 48 -5 108 -4 l107 0 67 103 c113 173 273 328 408 396 223 112 456 102
725 -31 97 -48 171 -99 387 -263 171 -130 342 -196 516 -199 l94 -2 84 134
c46 73 84 135 84 137 0 2 -30 1 -67 -2 -88 -8 -255 10 -379 42 -134 33 -257
95 -400 201 -272 200 -349 244 -503 289 -97 28 -260 39 -349 24z"/>
<path d="M3807 1668 c-76 -41 -226 -168 -306 -258 -36 -40 -107 -129 -159
-199 l-94 -126 153 -3 153 -3 55 63 c72 82 165 171 219 209 l42 30 0 159 c0
88 -1 160 -2 160 -2 0 -29 -15 -61 -32z"/>
<path d="M1204 1580 c-120 -31 -231 -97 -342 -204 -58 -54 -162 -184 -206
-253 l-26 -43 160 0 160 0 77 64 c248 208 501 206 753 -5 l70 -59 277 0 278 0
-90 45 c-51 25 -140 84 -205 135 -260 203 -412 285 -600 326 -90 19 -220 17
-306 -6z"/>
<path d="M3825 1289 c-22 -18 -77 -71 -122 -118 l-83 -86 121 -3 c67 -1 123
-1 126 1 2 3 2 57 1 121 l-3 116 -40 -31z"/>
<path d="M1255 1218 c-60 -20 -179 -91 -204 -121 -13 -16 12 -17 350 -17 l364
0 -25 24 c-40 40 -140 95 -209 116 -83 26 -196 25 -276 -2z"/>
<path d="M50 580 c0 -369 3 -456 14 -478 31 -61 -99 -57 1890 -57 1466 0 1827
3 1852 13 65 27 64 22 64 521 l0 451 -1910 0 -1910 0 0 -450z m550 210 c10
-19 21 -20 185 -20 232 0 215 18 215 -228 0 -232 3 -226 -107 -223 l-53 1 -2
168 -3 167 -30 0 -30 0 -3 -151 c-2 -130 -5 -154 -20 -167 -22 -20 -58 -26
-92 -17 l-25 6 -5 165 c-5 161 -5 164 -28 167 -28 4 -27 6 -56 -162 -30 -170
-34 -175 -132 -177 -39 -1 -77 1 -83 5 -15 10 -14 139 1 154 7 7 24 12 39 12
18 0 30 6 33 18 6 20 26 132 26 144 0 4 -19 8 -43 8 -53 0 -67 13 -67 62 0 44
4 46 79 51 36 3 57 10 63 21 7 12 24 16 68 16 49 0 61 -3 70 -20z m900 -70 l0
-50 -55 0 c-37 0 -57 -4 -61 -13 -6 -18 21 -80 64 -146 21 -31 40 -61 44 -67
8 -13 -67 -124 -84 -124 -5 0 -19 11 -30 25 -17 22 -27 25 -78 25 -32 0 -61 4
-64 9 -4 5 0 26 6 48 11 30 19 39 43 43 33 6 32 1 14 115 -18 114 -41 114 -53
0 -11 -110 -75 -265 -109 -265 -11 0 -87 100 -87 114 0 4 18 33 40 65 49 72
85 150 73 161 -4 5 -33 10 -63 12 -54 3 -55 3 -58 36 -6 64 -14 62 233 62
l225 0 0 -50z m215 -175 l0 -220 -42 2 c-85 4 -83 -3 -83 227 0 111 3 206 7
210 4 4 32 6 63 4 l55 -3 0 -220z m232 64 l58 -70 3 70 c3 68 4 71 27 71 32 0
37 -20 33 -140 -3 -93 -3 -95 -28 -98 -21 -2 -36 9 -80 64 l-55 68 -3 -67 c-3
-67 -3 -67 -32 -67 l-30 0 0 113 c0 63 3 117 7 120 18 19 47 1 100 -64z m379
38 c68 -62 51 -168 -33 -203 -49 -21 -113 -11 -147 22 -86 86 -29 214 96 214
41 0 54 -5 84 -33z m272 13 c59 -36 77 -120 37 -177 -42 -60 -150 -67 -204
-13 -106 107 37 269 167 190z m265 6 c43 -18 67 -46 74 -90 7 -45 -11 -91 -47
-116 -22 -16 -44 -20 -109 -20 l-81 0 0 120 0 120 65 0 c36 0 80 -6 98 -14z
m175 -88 l3 -98 59 0 c53 0 60 -2 60 -20 0 -19 -7 -20 -90 -20 l-90 0 0 121 0
120 28 -3 27 -3 3 -97z m327 77 c0 -17 -8 -21 -60 -25 -52 -4 -60 -8 -63 -27
-3 -20 1 -22 55 -25 44 -2 58 -7 58 -18 0 -11 -14 -16 -50 -18 -58 -4 -70 -12
-60 -41 5 -18 14 -21 66 -21 52 0 59 -2 59 -20 0 -19 -7 -20 -90 -20 l-90 0 0
120 0 121 88 -3 c79 -3 87 -5 87 -23z m203 16 c8 -5 12 -17 10 -27 -3 -16 -12
-19 -58 -19 -77 0 -74 -23 5 -50 47 -16 62 -26 69 -48 8 -22 6 -32 -10 -54
-26 -34 -64 -47 -117 -39 -57 9 -71 19 -62 45 5 17 11 20 28 14 41 -14 101 -9
105 9 2 12 -10 20 -51 32 -87 25 -111 73 -62 121 19 20 34 25 77 25 29 0 59
-4 66 -9z"/>
<path d="M2193 615 c-29 -20 -37 -59 -19 -94 25 -48 73 -55 111 -16 66 65 -16
163 -92 110z"/>
<path d="M2470 603 c-58 -73 40 -164 105 -98 30 30 32 64 4 99 -29 37 -80 36
-109 -1z"/>
<path d="M2760 555 l0 -78 41 6 c52 7 79 31 79 72 0 47 -20 66 -73 72 l-47 6
0 -78z"/>
</g>
</svg>
